<svg width="1440" height="869" viewBox="0 0 1440 869" fill="none" xmlns="http://www.w3.org/2000/svg">
<path fill-rule="evenodd" clip-rule="evenodd" d="M1440 811.797C1440 819.9 1434.14 826.693 1426.08 827.595C1356.65 835.38 1038.32 869 720 869C401.676 869 83.3514 835.38 13.9153 827.595C5.86316 826.693 0 819.9 0 811.797V0L1440 0V811.797Z" fill="#DFEFFF"/>
<path opacity="0.054131" fill-rule="evenodd" clip-rule="evenodd" d="M1057 552C1288.41 552 1476 364.407 1476 133C1476 -98.4073 1288.41 -286 1057 -286C825.593 -286 638 -98.4073 638 133C638 364.407 825.593 552 1057 552Z" fill="#0068FF"/>
<path opacity="0.054131" fill-rule="evenodd" clip-rule="evenodd" d="M920.5 160C779.944 160 666 273.944 666 414.5C666 555.056 779.944 669 920.5 669C1061.06 669 1175 555.056 1175 414.5C1175 273.944 1061.06 160 920.5 160Z" fill="#FF8589"/>
<path opacity="0.054131" fill-rule="evenodd" clip-rule="evenodd" d="M1307.5 522C1400.56 522 1476 446.784 1476 354C1476 261.216 1400.56 186 1307.5 186C1214.44 186 1139 261.216 1139 354C1139 446.784 1214.44 522 1307.5 522Z" fill="#00CD8F"/>
<path opacity="0.054131" fill-rule="evenodd" clip-rule="evenodd" d="M81.6398 388C181.957 388 263.28 469.484 263.28 570C263.28 670.516 181.957 752 81.6398 752C-18.6771 752 -100 670.516 -100 570C-100 469.484 -18.6771 388 81.6398 388Z" fill="#0068FF"/>
<path opacity="0.054131" fill-rule="evenodd" clip-rule="evenodd" d="M22.4662 558C-38.4661 558 -87.8616 508.751 -87.8616 448C-87.8616 387.249 -38.4661 338 22.4662 338C83.3985 338 132.794 387.249 132.794 448C132.794 508.751 83.3985 558 22.4662 558Z" fill="#FF8589"/>
<path opacity="0.054131" fill-rule="evenodd" clip-rule="evenodd" d="M190.234 402C230.576 402 263.28 434.683 263.28 475C263.28 515.317 230.576 548 190.234 548C149.891 548 117.188 515.317 117.188 475C117.188 434.683 149.891 402 190.234 402Z" fill="#00CD8F"/>
</svg>
