<svg width="182" height="202" viewBox="0 0 182 202" fill="none" xmlns="http://www.w3.org/2000/svg">
<path fill-rule="evenodd" clip-rule="evenodd" d="M74 148.202C33.1309 148.202 0 115.071 0 74.2021C0 33.3331 33.1309 0.202148 74 0.202148C114.869 0.202148 148 33.3331 148 74.2021C148 115.071 114.869 148.202 74 148.202Z" fill="#0068FF"/>
<path fill-rule="evenodd" clip-rule="evenodd" d="M148 201.202C129.222 201.202 114 185.98 114 167.202C114 148.424 129.222 133.202 148 133.202C166.778 133.202 182 148.424 182 167.202C182 185.98 166.778 201.202 148 201.202Z" fill="#FF8589"/>
<path fill-rule="evenodd" clip-rule="evenodd" d="M82 195.202C72.0589 195.202 64 187.143 64 177.202C64 167.261 72.0589 159.202 82 159.202C91.9411 159.202 100 167.261 100 177.202C100 187.143 91.9411 195.202 82 195.202Z" fill="#00CD8F"/>
</svg>
