<svg width="272" height="301" viewBox="0 0 272 301" fill="none" xmlns="http://www.w3.org/2000/svg">
<path fill-rule="evenodd" clip-rule="evenodd" d="M161.5 222.001C222.527 222.001 272 172.482 272 111.397C272 50.312 222.527 0.792725 161.5 0.792725C100.473 0.792725 51 50.312 51 111.397C51 172.482 100.473 222.001 161.5 222.001Z" fill="#0068FF"/>
<path fill-rule="evenodd" clip-rule="evenodd" d="M51 300.449C79.1665 300.449 102 277.615 102 249.449C102 221.282 79.1665 198.449 51 198.449C22.8335 198.449 0 221.282 0 249.449C0 277.615 22.8335 300.449 51 300.449Z" fill="#FF8589"/>
<path fill-rule="evenodd" clip-rule="evenodd" d="M149 292.449C163.912 292.449 176 280.361 176 265.449C176 250.537 163.912 238.449 149 238.449C134.088 238.449 122 250.537 122 265.449C122 280.361 134.088 292.449 149 292.449Z" fill="#00CD8F"/>
</svg>
